<?xml version="1.0" encoding="UTF-8"?>
<svg id="Layer_2" data-name="Layer 2" xmlns="http://www.w3.org/2000/svg" viewBox="0 0 330.74 329.86">
  <defs>
    <style>
      .cls-1 {
        fill: #be1a1d;
      }
    </style>
  </defs>
  <g id="Layer_1-2" data-name="Layer 1-2">
    <path class="cls-1" d="M183.45,1.36c35.88,4.63,70.17,20.88,96.55,45.73,36.5,34.37,55.44,84.79,49.74,134.68-5.57,48.76-33.42,94.46-74.64,121.23-42.8,27.8-97.75,34.87-145.99,17.21-48.12-17.62-86.37-58.28-101.66-107.1C-8.51,162.13,1.57,106.02,34.01,63.65c9.46-12.36,20.68-23.37,33.28-32.52C92.19,13.06,122.1,2.14,152.83.29c10.24-.62,20.49-.24,30.62,1.07ZM202.43,87.9c-21.22,4.12-17.78,40.16,9.58,33.14,17.97-4.61,11.84-37.3-9.58-33.14ZM167.53,90.53h-25.73c-7.16,0-22.77,9.41-27.19,15.44-7.64,10.44-4.03,14.91-5.88,24.99-1.29,7.02-13.2,2.14-14.72,3.66-.88.89-.88,24.12,0,25.01.68.69,14.71-1.57,14.71,2.2v53.66c0,.74-14.7-.74-14.7,0v26.46h66.16c-3.5-4.25.09-24.01-.64-25.03-2.07-2.89-11.79-.87-15.53-1.43v-55.87h44.1v55.87c0,.66-13.23-.66-13.23,0v26.46h61.75v-26.46c0-.66-13.23.66-13.23,0v-80.86h-79.39c-3-18.5,9.48-16.56,23.52-16.17v-27.93h0Z"/>
  </g>
</svg>