<?xml version="1.0" encoding="UTF-8"?>
<svg id="Layer_2" data-name="Layer 2" xmlns="http://www.w3.org/2000/svg" viewBox="0 0 316.68 319.02">
  <defs>
    <style>
      .cls-1 {
        fill: #be1a1d;
      }
    </style>
  </defs>
  <g id="Layer_1-2" data-name="Layer 1-2">
    <g>
      <path class="cls-1" d="M76.01,1.89C124.46-.81,184.1-.34,232.76,1.55c19.76.77,41.01,3.88,57.11,16.31,13.4,10.34,23.74,28.57,24.09,45.62.61,29.89.95,59.77,1.84,89.67.9,30.07,1.52,60.21-.23,90.26-.11,1.9-.23,3.79-.36,5.68-1.83,26.62-16.09,51.25-41.31,61.69-13.4,5.55-23.2,5.06-37.17,5.83-52.31,2.89-116.85,3.51-169.05.03-36.95-2.46-63.56-28.69-66.45-65.55,2.81-59.66-3.77-122.78-.06-182.04C3.94,24.75,34.31,4.22,76.01,1.89ZM107.02,43.9c-41.13,3.23-62.42,27.66-64.84,68.16-1.66,27.86-1.66,67.22,0,95.08,2.51,42.12,25.17,65.78,67.55,68.45,27.96,1.76,69.07,1.86,96.98,0,49.63-3.31,65.61-32.31,67.56-78.44,1-23.7,1.05-52.41,0-76.09-2.03-45.61-18.64-74.38-67.5-77.5-28.38-1.81-71.49-1.88-99.74.34h-.01Z"/>
      <path class="cls-1" d="M143.03,63.86c19.2-.16,42.76-.46,61.72.69,37.8,2.31,46.89,21.6,48.5,56.5,1.1,23.79,1.1,53.3,0,77.08-1.74,37.59-12.04,54.37-51.5,56.5-26.33,1.42-61.78,1.48-88.08,0-32.67-1.83-48.46-15.14-50.5-48.5-1.66-27.25-1.74-66.87,0-94.08,3.22-50.43,39.74-47.86,79.86-48.19ZM216.95,83.83c-18.98,3.44-10.55,34.94,9.16,26.16,13.86-6.18,8.19-29.3-9.16-26.16ZM152.01,99.89c-81.11,8.42-63.95,133.67,17.45,118.45,73.18-13.68,57.44-126.22-17.45-118.45Z"/>
      <path class="cls-1" d="M129.57,186.25c-34.87-37.23,22.49-91.45,57.16-52.66,33.79,37.81-22.63,89.52-57.16,52.66Z"/>
    </g>
  </g>
</svg>