<?xml version="1.0" encoding="UTF-8"?>
<svg id="Layer_2" data-name="Layer 2" xmlns="http://www.w3.org/2000/svg" viewBox="0 0 414.64 277.43">
  <defs>
    <style>
      .cls-1 {
        fill: #be1a1d;
      }
    </style>
  </defs>
  <g id="Layer_1-2" data-name="Layer 1-2">
    <g>
      <path class="cls-1" d="M24.21.6c.51-.19,1.19-.29,2.06-.29,62.38,0,124.75.02,187.13,0,51.54,0,103.08-.05,154.63-.02,6.43,0,13.31-.69,19.69.04,5.68.65,4.89,4.38,1.18,8.07-38.07,37.92-75.99,75.99-113.98,113.99-15.36,15.36-30.98,30.39-45.89,46.14-6.3,6.66-17.83,17.36-27.86,12.64-2.85-1.34-5.18-3.55-7.44-5.74-20.95-20.27-41.23-41.25-62-61.7-20.92-20.82-41.85-41.64-62.77-62.46-10.35-10.3-20.7-20.6-31.05-30.89-1.12-1.11-19.77-17.58-13.71-19.78h0Z"/>
      <path class="cls-1" d="M24.09,276.74c-1.5-2.95-1.36-5.02,1.14-7.45,4.29-4.17,8.56-8.34,12.82-12.53,10.38-10.2,20.75-20.4,31.13-30.6,20.59-20.24,41.19-40.49,61.78-60.73,2.67-2.63,5.35-5.25,8.02-7.88,25.49,19.95,41.46,57.38,79.39,49.64,17.53-3.58,53.21-50.63,58.82-49.64,17.54,17.47,35.07,34.93,52.61,52.4,20.08,20,39.96,40.25,60.33,59.96.83.8,1.69,1.65,2.01,2.76,1.23,4.16-3.83,4.76-6.77,4.76-41.72-.11-83.41-.65-125.13-.65H60.49c-12.13,0-24.26,0-36.39-.01v-.03Z"/>
      <polygon class="cls-1" points="0 255.81 0 21.26 119.21 137.78 0 255.81"/>
      <polygon class="cls-1" points="414.64 21.26 414.64 255.81 295.43 139.3 414.64 21.26"/>
    </g>
  </g>
</svg>