<?xml version="1.0" encoding="UTF-8"?>
<svg id="Layer_2" data-name="Layer 2" xmlns="http://www.w3.org/2000/svg" viewBox="0 0 330.74 330.28">
  <defs>
    <style>
      .cls-1 {
        fill: #be1a1d;
      }
    </style>
  </defs>
  <g id="Layer_1-2" data-name="Layer 1-2">
    <path class="cls-1" d="M160.28,0l18.82.4c122.05,10.68,191.91,146.06,126.73,251.82-58.07,94.24-192.77,105.35-265.24,21.28C-50.54,167.78,21.48,5.15,160.28,0ZM203.95,69.09h-34.07v133.2c0,7.31-8.7,17.93-14.91,21.39-27.51,15.32-57.08-15.1-41.39-41.95,4.25-7.26,15.02-14.91,23.63-14.91h14.24v-33.51c-25.39-2.13-49.24,6.03-64.12,27.19-21.2,30.15-12.44,72.84,19.27,91.66,42.94,25.49,95.77-4.71,97.37-53.76l-.02-77.37c12.22,11.97,27.9,18.14,44.66,20.67l5.92-32.44c-23.19-2.55-41.22-19.63-50.59-40.17h0Z"/>
  </g>
</svg>